<svg t="1758269648450" class="icon" viewBox="0 0 2486 1024" version="1.1" xmlns="http://www.w3.org/2000/svg"
    p-id="12342" xmlns:xlink="http://www.w3.org/1999/xlink" width="485.546875" height="200">
    <path
        d="M2121.142857 0h146.285714v1024h-146.285714V0z m219.428572 0h146.285714v1024h-146.285714V0zM1316.571429 0h219.428571v1024h-219.428571V0zM0 0h146.285714v1024H0V0z m219.428571 0h73.142858v1024H219.428571V0z m146.285715 0h73.142857v1024h-73.142857V0z m146.285714 0h73.142857v1024h-73.142857V0z m365.714286 0h73.142857v1024h-73.142857V0z m146.285714 0h73.142857v1024h-73.142857V0z m146.285714 0h73.142857v1024h-73.142857V0z m438.857143 0h73.142857v1024h-73.142857V0z m146.285714 0h73.142858v1024h-73.142858V0zM658.285714 0h146.285715v1024h-146.285715V0z m1243.428572 0h146.285714v1024h-146.285714V0z"
        fill="#d2c1d9" p-id="12343" data-spm-anchor-id="a313x.search_index.0.i1.38583a81jMdLdf" class="selected"></path>
</svg>