<svg width="253.011" height="33.191" viewBox="0 0 253.011 33.191" xmlns="http://www.w3.org/2000/svg">
    <g id="svgGroup" stroke-linecap="round" fill-rule="evenodd" font-size="9pt" stroke="#000000"
        stroke-width="0.25mm" fill="#6b2dde" style="stroke:#6b2dde;stroke-width:0.25mm;fill:#a035cb"><path d="M 128.595 32.471 L 122.736 32.715 Q 122.54 32.52 122.54 31.983 Q 122.54 31.299 122.736 31.299 A 7.507 7.507 0 0 0 123.907 31.177 A 7.01 7.01 0 0 0 125.275 30.811 Q 125.909 30.567 126.007 30.323 A 8.729 8.729 0 0 0 126.276 28.565 Q 126.349 27.491 126.349 25.977 L 126.349 7.032 Q 126.349 5.518 126.276 4.419 A 7.926 7.926 0 0 0 126.007 2.686 A 1.083 1.083 0 0 0 125.275 2.173 A 10.437 10.437 0 0 0 123.907 1.807 A 6.302 6.302 0 0 0 122.736 1.661 A 0.554 0.554 0 0 1 122.54 1.026 A 1.131 1.131 0 0 1 122.736 0.245 Q 123.175 0.245 124.225 0.318 A 234.913 234.913 0 0 0 126.495 0.464 Q 127.716 0.538 128.595 0.538 Q 130.157 0.538 131.72 0.416 Q 133.282 0.293 134.259 0.245 A 1.451 1.451 0 0 1 134.337 0.823 A 5.716 5.716 0 0 1 134.332 1.05 A 0.626 0.626 0 0 1 134.161 1.661 Q 133.868 1.661 133.136 1.832 Q 132.404 2.002 131.769 2.222 Q 131.134 2.442 131.036 2.686 A 18.513 18.513 0 0 0 130.597 7.227 L 130.597 14.502 L 130.695 14.649 Q 133.087 14.698 134.943 14.722 A 246.569 246.569 0 0 0 138.116 14.747 A 241.167 241.167 0 0 0 141.339 14.722 Q 143.146 14.698 145.343 14.649 Q 145.441 14.551 145.441 14.454 L 145.441 7.032 Q 145.441 5.518 145.367 4.419 A 7.926 7.926 0 0 0 145.099 2.686 A 1.083 1.083 0 0 0 144.366 2.173 A 10.437 10.437 0 0 0 142.999 1.807 A 6.302 6.302 0 0 0 141.827 1.661 A 0.554 0.554 0 0 1 141.632 1.026 A 1.131 1.131 0 0 1 141.827 0.245 Q 142.218 0.245 143.292 0.318 A 250.347 250.347 0 0 0 145.612 0.464 Q 146.857 0.538 147.736 0.538 A 38.258 38.258 0 0 0 150.812 0.416 Q 152.325 0.293 153.302 0.245 A 3.028 3.028 0 0 1 153.4 0.977 Q 153.4 1.661 153.204 1.661 Q 152.911 1.661 152.179 1.832 Q 151.446 2.002 150.812 2.222 Q 150.177 2.442 150.079 2.686 A 12.431 12.431 0 0 0 149.786 4.59 A 30.914 30.914 0 0 0 149.689 7.227 L 149.689 25.782 A 30.914 30.914 0 0 0 149.786 28.418 A 12.431 12.431 0 0 0 150.079 30.323 A 1.464 1.464 0 0 0 150.812 30.762 Q 151.446 31.006 152.179 31.153 A 6.172 6.172 0 0 0 153.204 31.299 A 0.685 0.685 0 0 1 153.4 32.032 A 2.869 2.869 0 0 1 153.302 32.715 A 322.876 322.876 0 0 1 149.469 32.544 Q 148.077 32.471 147.736 32.471 L 141.827 32.715 A 1.227 1.227 0 0 1 141.632 31.885 A 0.494 0.494 0 0 1 141.827 31.299 A 7.507 7.507 0 0 0 142.999 31.177 A 7.01 7.01 0 0 0 144.366 30.811 Q 145.001 30.567 145.099 30.323 A 8.729 8.729 0 0 0 145.367 28.565 Q 145.441 27.491 145.441 25.977 L 145.441 17.383 L 145.343 17.188 Q 143.048 17.139 141.241 17.115 A 235.614 235.614 0 0 0 138.116 17.09 A 245.171 245.171 0 0 0 133.534 17.125 Q 130.597 17.182 130.597 17.334 L 130.597 25.782 A 18.88 18.88 0 0 0 131.036 30.323 A 1.464 1.464 0 0 0 131.769 30.762 Q 132.404 31.006 133.136 31.153 A 6.172 6.172 0 0 0 134.161 31.299 A 0.588 0.588 0 0 1 134.332 31.885 A 5.317 5.317 0 0 1 134.337 32.106 A 1.755 1.755 0 0 1 134.259 32.715 A 348.814 348.814 0 0 1 130.402 32.544 Q 128.986 32.471 128.595 32.471 Z M 6.134 32.569 L 0.226 32.715 A 1.275 1.275 0 0 1 0.079 31.934 A 0.646 0.646 0 0 1 0.226 31.299 Q 0.665 31.299 1.398 31.128 A 11.58 11.58 0 0 0 2.789 30.713 Q 3.448 30.469 3.595 30.176 A 3.963 3.963 0 0 0 3.851 28.76 A 45.344 45.344 0 0 0 3.937 25.586 L 3.937 7.129 A 37.111 37.111 0 0 0 3.863 4.639 A 7.835 7.835 0 0 0 3.595 2.93 Q 3.497 2.637 2.838 2.393 Q 2.179 2.149 1.422 2.002 A 6.683 6.683 0 0 0 0.226 1.856 Q 0.03 1.856 0.03 1.27 A 1.227 1.227 0 0 1 0.226 0.44 A 126.493 126.493 0 0 0 2.936 0.513 A 183.648 183.648 0 0 0 6.036 0.538 A 124.435 124.435 0 0 0 9.064 0.489 Q 10.968 0.44 13.654 0.342 Q 16.388 0.245 18.414 0.196 A 145.022 145.022 0 0 1 21.808 0.147 A 28.108 28.108 0 0 0 22.101 1.783 Q 22.296 2.735 22.589 3.858 A 85.135 85.135 0 0 0 23.004 5.762 Q 23.175 6.495 23.224 6.788 A 1.234 1.234 0 0 1 22.345 7.032 A 0.563 0.563 0 0 1 21.661 6.69 A 5.489 5.489 0 0 0 19.641 3.266 A 2.366 2.366 0 0 0 19.611 3.248 A 7.277 7.277 0 0 0 15.997 2.491 L 12.726 2.491 Q 8.478 2.491 8.429 3.126 A 18.263 18.263 0 0 0 8.258 4.737 Q 8.185 5.762 8.185 7.227 L 8.185 15.04 Q 8.185 15.333 10.284 15.333 L 12.872 15.333 A 65.916 65.916 0 0 0 15.118 15.308 A 3.091 3.091 0 0 0 15.973 15.186 Q 16.241 15.088 17.023 14.893 A 1.354 1.354 0 0 0 17.78 13.746 Q 18.048 12.696 18.243 12.012 A 0.607 0.607 0 0 1 18.976 11.67 Q 19.562 11.67 19.806 11.915 L 19.806 21.143 A 1.131 1.131 0 0 1 19.025 21.338 A 0.731 0.731 0 0 1 18.243 20.948 A 94.72 94.72 0 0 0 17.902 19.776 Q 17.755 19.288 17.657 18.946 A 2.409 2.409 0 0 0 17.291 18.165 Q 17.169 18.067 16.876 17.872 A 4.868 4.868 0 0 0 15.24 17.579 A 49.728 49.728 0 0 0 11.7 17.481 Q 8.185 17.481 8.185 17.92 L 8.185 25.489 A 18.803 18.803 0 0 0 8.498 29.489 A 4.595 4.595 0 0 0 8.624 29.932 A 1.122 1.122 0 0 0 9.528 30.298 A 17.874 17.874 0 0 0 11.945 30.42 L 14.288 30.42 A 23.237 23.237 0 0 0 19.126 30.028 A 5.817 5.817 0 0 0 20.441 29.59 A 5.282 5.282 0 0 0 22.076 27.857 A 11.344 11.344 0 0 0 23.517 24.659 Q 23.614 24.366 24.2 24.366 Q 25.128 24.366 25.421 24.659 A 85.888 85.888 0 0 1 24.957 25.855 A 48.528 48.528 0 0 0 24.347 27.491 Q 24.054 28.321 23.859 28.907 A 80.666 80.666 0 0 0 23.224 30.909 Q 22.882 32.032 22.784 32.764 A 270.609 270.609 0 0 1 19.586 32.74 Q 17.609 32.715 14.923 32.667 Q 12.238 32.618 10.04 32.593 A 355.772 355.772 0 0 0 6.134 32.569 Z M 118.683 1.221 L 118.585 8.252 A 0.804 0.804 0 0 1 117.56 8.985 A 0.687 0.687 0 0 1 116.925 8.741 A 14.171 14.171 0 0 0 116.559 7.447 Q 116.339 6.788 115.655 5.713 A 7.82 7.82 0 0 0 112.311 3.028 A 13.023 13.023 0 0 0 106.964 2.051 Q 104.571 2.051 102.472 3.199 A 12.373 12.373 0 0 0 98.785 6.299 A 14.856 14.856 0 0 0 96.32 10.718 A 15.086 15.086 0 0 0 95.441 15.821 A 18.465 18.465 0 0 0 96.808 23.096 Q 98.175 26.417 101.129 28.589 A 11.5 11.5 0 0 0 108.136 30.762 A 9.705 9.705 0 0 0 115.607 27.93 A 6.013 6.013 0 0 0 116.827 25.977 A 24.295 24.295 0 0 0 117.511 24.024 A 1.018 1.018 0 0 1 117.999 23.194 Q 118.292 23.194 118.707 23.267 A 1.95 1.95 0 0 1 119.366 23.487 L 119.611 23.633 A 10.553 10.553 0 0 1 119.415 25.001 A 56.886 56.886 0 0 1 118.927 27.369 Q 118.634 28.663 118.365 29.639 A 2.842 2.842 0 0 1 117.95 30.713 A 15.84 15.84 0 0 1 112.093 32.507 A 42.436 42.436 0 0 1 106.28 32.862 A 14.464 14.464 0 0 1 100.25 31.592 Q 97.443 30.323 95.319 28.126 Q 93.195 25.928 91.998 23.023 A 16.062 16.062 0 0 1 90.802 16.846 A 17.387 17.387 0 0 1 92.023 10.328 Q 93.243 7.276 95.441 4.957 A 16.168 16.168 0 0 1 100.543 1.319 Q 103.448 0.001 106.818 0.001 Q 109.698 0.001 112.677 0.293 A 55.937 55.937 0 0 1 118.683 1.221 Z M 34.601 32.471 L 28.644 32.715 A 1.526 1.526 0 0 1 28.497 31.836 A 0.646 0.646 0 0 1 28.644 31.202 A 6.076 6.076 0 0 0 29.84 31.055 A 12.022 12.022 0 0 0 31.207 30.689 A 1.341 1.341 0 0 0 32.013 30.176 A 3.963 3.963 0 0 0 32.269 28.76 A 45.344 45.344 0 0 0 32.355 25.586 L 32.355 7.129 A 37.111 37.111 0 0 0 32.281 4.639 A 7.835 7.835 0 0 0 32.013 2.93 Q 31.915 2.637 31.256 2.393 Q 30.597 2.149 29.84 2.002 A 6.683 6.683 0 0 0 28.644 1.856 Q 28.448 1.856 28.448 1.27 A 1.227 1.227 0 0 1 28.644 0.44 L 34.503 0.538 A 58.393 58.393 0 0 0 36.114 0.513 Q 36.993 0.489 37.97 0.44 Q 38.946 0.391 39.825 0.367 A 56.943 56.943 0 0 1 41.388 0.342 A 11.555 11.555 0 0 1 44.659 0.831 Q 46.32 1.319 47.833 2.295 A 7.091 7.091 0 0 1 50.348 5.079 A 8.878 8.878 0 0 1 51.3 9.278 Q 51.3 10.792 50.665 12.501 Q 50.03 14.209 48.785 15.699 Q 47.54 17.188 45.66 18.116 Q 43.78 19.043 41.339 19.043 A 4.438 4.438 0 0 1 37.579 17.676 A 0.972 0.972 0 0 1 37.384 17.025 A 2.583 2.583 0 0 1 37.433 16.553 A 0.261 0.261 0 0 1 37.547 16.379 A 0.04 0.04 0 0 1 37.579 16.407 Q 39.093 16.944 40.851 16.944 A 5.07 5.07 0 0 0 43.854 15.992 Q 45.196 15.04 46.002 13.453 A 7.495 7.495 0 0 0 46.808 10.01 A 8.981 8.981 0 0 0 45.294 4.517 Q 43.78 2.491 40.607 2.491 A 12.958 12.958 0 0 0 37.189 2.833 A 1.492 1.492 0 0 0 36.676 4.346 Q 36.603 5.811 36.603 8.204 L 36.603 25.635 A 20.499 20.499 0 0 0 36.841 29.33 A 3.574 3.574 0 0 0 36.993 29.883 A 1.887 1.887 0 0 0 37.946 30.616 A 7.384 7.384 0 0 0 39.581 31.128 Q 40.46 31.299 40.851 31.299 A 0.617 0.617 0 0 1 41.046 31.983 Q 41.046 32.325 40.948 32.715 A 679.569 679.569 0 0 1 36.92 32.544 Q 35.333 32.471 34.601 32.471 Z M 198.907 25.782 L 207.404 3.956 A 9.531 9.531 0 0 0 207.77 2.93 Q 207.843 2.637 207.916 2.417 A 9.203 9.203 0 0 1 208.234 1.661 A 5.125 5.125 0 0 1 208.917 0.586 Q 209.259 0.196 210.04 0.196 L 210.48 0.342 L 220.245 26.124 A 100.016 100.016 0 0 0 221.051 28.126 Q 221.417 29.004 221.661 29.639 A 1.797 1.797 0 0 0 222.516 30.494 A 7.208 7.208 0 0 0 223.883 31.08 Q 224.591 31.299 224.982 31.299 A 1.001 1.001 0 0 1 225.177 32.227 A 1.132 1.132 0 0 1 225.153 32.447 A 2.257 2.257 0 0 1 225.079 32.715 A 278.988 278.988 0 0 1 221.295 32.544 Q 219.952 32.471 219.708 32.471 L 214.044 32.715 A 0.969 0.969 0 0 1 213.871 32.04 A 3.269 3.269 0 0 1 213.873 31.91 Q 213.898 31.299 214.093 31.299 Q 214.679 31.299 215.558 31.055 A 1.423 1.423 0 0 0 216.583 30.42 Q 216.632 30.225 216.656 30.03 A 3.146 3.146 0 0 0 216.681 29.639 A 8.971 8.971 0 0 0 216.534 28.15 A 6.884 6.884 0 0 0 216.193 26.807 L 213.995 20.752 Q 213.849 20.557 213.702 20.557 A 48.397 48.397 0 0 0 209.991 20.411 Q 208.722 20.411 207.184 20.484 A 684.092 684.092 0 0 0 203.79 20.655 L 203.546 20.801 L 201.446 26.172 A 12.577 12.577 0 0 0 200.787 28.223 Q 200.616 29.053 200.616 29.542 Q 200.616 30.225 201.007 30.518 Q 201.446 30.86 202.423 31.08 A 7.341 7.341 0 0 0 203.839 31.299 A 0.588 0.588 0 0 1 204.01 31.885 A 5.317 5.317 0 0 1 204.015 32.106 A 1.755 1.755 0 0 1 203.937 32.715 L 198.907 32.471 A 16.851 16.851 0 0 0 197.707 32.428 A 15.541 15.541 0 0 0 196.246 32.496 A 332.685 332.685 0 0 1 193.829 32.715 Q 193.634 32.52 193.634 31.983 Q 193.634 31.299 193.829 31.299 A 6.228 6.228 0 0 0 195.343 31.055 A 2.32 2.32 0 0 0 196.613 30.372 Q 197.15 29.688 197.711 28.565 Q 198.273 27.442 198.907 25.782 Z M 174.2 32.471 L 168.292 32.618 A 1.275 1.275 0 0 1 168.146 31.836 A 0.646 0.646 0 0 1 168.292 31.202 A 6.076 6.076 0 0 0 169.488 31.055 A 12.022 12.022 0 0 0 170.856 30.689 A 1.341 1.341 0 0 0 171.661 30.176 A 3.963 3.963 0 0 0 171.918 28.76 A 45.344 45.344 0 0 0 172.003 25.586 L 172.003 7.129 A 24.854 24.854 0 0 0 171.777 3.214 A 5.428 5.428 0 0 0 171.661 2.686 A 1.083 1.083 0 0 0 170.929 2.173 A 10.437 10.437 0 0 0 169.562 1.807 A 6.302 6.302 0 0 0 168.39 1.661 A 0.554 0.554 0 0 1 168.195 1.026 A 1.131 1.131 0 0 1 168.39 0.245 Q 168.829 0.245 169.879 0.318 A 234.913 234.913 0 0 0 172.15 0.464 Q 173.37 0.538 174.249 0.538 Q 175.812 0.538 177.374 0.416 Q 178.937 0.293 179.913 0.245 A 3.028 3.028 0 0 1 180.011 0.977 Q 180.011 1.661 179.816 1.661 Q 179.523 1.661 178.79 1.832 Q 178.058 2.002 177.423 2.222 Q 176.788 2.442 176.691 2.686 A 18.513 18.513 0 0 0 176.251 7.227 L 176.251 25.635 A 17.618 17.618 0 0 0 176.691 29.932 A 1.122 1.122 0 0 0 177.594 30.298 A 17.874 17.874 0 0 0 180.011 30.42 L 182.355 30.42 A 23.237 23.237 0 0 0 187.193 30.028 A 5.817 5.817 0 0 0 188.507 29.59 A 5.282 5.282 0 0 0 190.143 27.857 A 11.344 11.344 0 0 0 191.583 24.659 Q 191.681 24.366 192.267 24.366 Q 193.195 24.366 193.488 24.659 A 85.888 85.888 0 0 1 193.024 25.855 A 48.528 48.528 0 0 0 192.413 27.491 Q 192.12 28.321 191.925 28.907 A 80.666 80.666 0 0 0 191.29 30.909 Q 190.948 32.032 190.851 32.764 A 181.942 181.942 0 0 1 187.604 32.728 A 542.542 542.542 0 0 1 182.941 32.618 Q 180.255 32.52 178.058 32.471 A 93.153 93.153 0 0 0 175.995 32.447 A 61.289 61.289 0 0 0 174.2 32.471 Z M 233.917 32.569 L 228.009 32.715 A 1.275 1.275 0 0 1 227.863 31.934 A 0.646 0.646 0 0 1 228.009 31.299 Q 228.448 31.299 229.181 31.128 A 11.58 11.58 0 0 0 230.572 30.713 Q 231.232 30.469 231.378 30.176 A 3.963 3.963 0 0 0 231.634 28.76 A 45.344 45.344 0 0 0 231.72 25.586 L 231.72 7.129 A 37.111 37.111 0 0 0 231.647 4.639 A 7.835 7.835 0 0 0 231.378 2.93 Q 231.28 2.637 230.621 2.393 Q 229.962 2.149 229.205 2.002 A 6.683 6.683 0 0 0 228.009 1.856 Q 227.814 1.856 227.814 1.27 A 1.227 1.227 0 0 1 228.009 0.44 A 126.493 126.493 0 0 0 230.719 0.513 A 183.648 183.648 0 0 0 233.82 0.538 L 237.921 0.489 L 240.704 0.489 A 17.516 17.516 0 0 1 241.998 0.538 Q 242.657 0.586 243.292 0.684 A 11.847 11.847 0 0 1 246.979 1.978 Q 248.712 2.93 249.811 4.542 Q 250.909 6.153 250.909 8.497 A 5.524 5.524 0 0 1 249.786 11.768 Q 248.663 13.282 247.711 13.868 A 9.097 9.097 0 0 1 246.075 14.698 A 0.358 0.358 0 0 0 245.791 14.911 A 0.115 0.115 0 0 0 245.831 14.991 A 6.18 6.18 0 0 1 248.029 15.87 Q 249.249 16.602 250.372 17.75 A 10.791 10.791 0 0 1 252.252 20.362 A 6.613 6.613 0 0 1 253.009 23.438 A 7.831 7.831 0 0 1 251.471 28.272 A 9.849 9.849 0 0 1 247.15 31.446 A 17.424 17.424 0 0 1 240.607 32.569 L 233.917 32.569 Z M 59.845 28.223 Q 55.255 23.438 55.255 16.553 A 16.886 16.886 0 0 1 56.476 10.132 A 17.022 17.022 0 0 1 59.821 4.859 A 15.599 15.599 0 0 1 64.777 1.294 A 14.396 14.396 0 0 1 70.831 0.001 A 14.396 14.396 0 0 1 76.886 1.294 Q 79.718 2.588 81.866 4.859 A 16.794 16.794 0 0 1 85.236 10.132 A 16.886 16.886 0 0 1 86.456 16.553 A 16.229 16.229 0 0 1 81.866 28.223 A 15.264 15.264 0 0 1 74.786 32.642 A 14.697 14.697 0 0 1 70.837 33.191 A 14.565 14.565 0 0 1 66.901 32.642 A 15.275 15.275 0 0 1 59.845 28.223 Z M 71.613 30.958 A 8.047 8.047 0 0 0 77.081 28.907 A 11.779 11.779 0 0 0 80.524 23.902 Q 81.622 20.899 81.622 17.481 Q 81.622 13.624 80.353 10.108 Q 79.083 6.641 76.398 4.346 Q 73.712 2.051 70.099 2.051 A 8.029 8.029 0 0 0 64.777 3.931 A 12.189 12.189 0 0 0 61.31 8.863 A 17.651 17.651 0 0 0 60.089 15.479 Q 60.089 19.336 61.359 22.852 A 13.746 13.746 0 0 0 65.314 28.638 A 9.333 9.333 0 0 0 71.613 30.958 Z M 235.968 18.213 L 235.968 25.342 A 13.123 13.123 0 0 0 236.317 28.927 A 1.578 1.578 0 0 0 236.749 29.688 Q 237.53 30.372 239.386 30.372 A 14.975 14.975 0 0 0 241.803 30.176 Q 242.999 29.981 244.659 29.395 A 5.269 5.269 0 0 0 247.345 27.466 A 5.727 5.727 0 0 0 248.37 23.975 A 7.852 7.852 0 0 0 247.443 20.167 A 6.763 6.763 0 0 0 244.611 17.432 A 10.369 10.369 0 0 0 239.679 16.407 A 26.72 26.72 0 0 0 238.263 16.456 A 88.285 88.285 0 0 0 236.163 16.602 A 5.004 5.004 0 0 0 235.968 18.213 Z M 236.163 3.272 L 235.968 8.204 L 235.968 14.014 A 0.945 0.945 0 0 0 236.774 14.271 A 24.994 24.994 0 0 0 239.191 14.356 A 22.339 22.339 0 0 0 241.925 14.209 Q 243.927 14.014 245.27 12.818 Q 246.613 11.622 246.613 9.62 A 7.591 7.591 0 0 0 244.928 4.371 A 6.376 6.376 0 0 0 239.923 2.491 A 13.207 13.207 0 0 0 236.456 2.833 Q 236.163 2.881 236.163 3.272 Z M 212.726 17.92 L 212.872 17.676 L 208.917 6.885 L 204.718 17.774 A 0.15 0.15 0 0 0 204.816 17.969 Q 206.085 18.018 206.94 18.042 A 49.855 49.855 0 0 0 208.282 18.067 A 68.266 68.266 0 0 0 212.726 17.92 Z"/></g></svg>