<svg width="172.3" height="32.152" viewBox="0 0 172.3 32.152" xmlns="http://www.w3.org/2000/svg">
    <g id="svgGroup" stroke-linecap="round" fill-rule="evenodd" font-size="9pt" stroke="#000000" stroke-width="0.25mm"
        fill="#000000" style="stroke:#969696;stroke-width:0.25mm;fill:#969696">
        <path
            d="M 27.45 31.601 L 24.35 32.101 L 6.9 7.201 L 6.9 28.951 L 11.2 29.951 L 11.2 31.601 L 0 31.601 L 0 29.951 L 4 28.951 L 4 3.651 L 0 2.701 L 0 1.051 L 7.4 1.051 L 24.65 25.101 L 24.65 3.651 L 20.4 2.701 L 20.4 1.051 L 31.5 1.051 L 31.5 2.701 L 27.45 3.651 L 27.45 31.601 Z M 172.3 31.601 L 152.7 31.601 L 152.7 29.951 L 160.85 28.601 L 160.85 4.551 L 152.95 4.551 L 152.95 2.701 L 165.1 0.901 L 165.1 28.601 L 172.3 29.951 L 172.3 31.601 Z M 49.3 32.051 Q 44.15 32.051 40.975 29.901 Q 37.8 27.751 36.325 24.151 Q 34.85 20.551 34.85 16.201 Q 34.85 11.851 36.3 8.226 Q 37.75 4.601 40.925 2.451 A 14.455 14.455 0 0 1 48.977 0.303 A 24.699 24.699 0 0 1 49.3 0.301 Q 54.5 0.301 57.65 2.451 Q 60.8 4.601 62.225 8.226 Q 63.65 11.851 63.65 16.201 Q 63.65 20.551 62.2 24.151 Q 60.75 27.751 57.6 29.901 A 14.24 14.24 0 0 1 49.62 32.049 A 24.227 24.227 0 0 1 49.3 32.051 Z M 86.6 32.151 Q 83.65 32.151 81.225 30.626 Q 78.8 29.101 77.375 25.551 A 22.728 22.728 0 0 1 76.009 18.369 A 43.858 43.858 0 0 1 75.95 16.051 Q 75.95 11.601 76.775 8.526 Q 77.6 5.451 79.075 3.576 Q 80.55 1.701 82.475 0.851 Q 84.4 0.001 86.6 0.001 Q 89.55 0.001 91.925 1.501 Q 94.3 3.001 95.725 6.501 A 21.724 21.724 0 0 1 97.061 13.185 A 43.715 43.715 0 0 1 97.15 16.051 A 30.924 30.924 0 0 1 96.348 23.659 A 15.336 15.336 0 0 1 95.725 25.576 Q 94.3 29.101 91.925 30.626 Q 89.55 32.151 86.6 32.151 Z M 111.7 32.151 Q 108.75 32.151 106.325 30.626 Q 103.9 29.101 102.475 25.551 A 22.728 22.728 0 0 1 101.109 18.369 A 43.858 43.858 0 0 1 101.05 16.051 Q 101.05 11.601 101.875 8.526 Q 102.7 5.451 104.175 3.576 Q 105.65 1.701 107.575 0.851 Q 109.5 0.001 111.7 0.001 Q 114.65 0.001 117.025 1.501 Q 119.4 3.001 120.825 6.501 A 21.724 21.724 0 0 1 122.161 13.185 A 43.715 43.715 0 0 1 122.25 16.051 A 30.924 30.924 0 0 1 121.448 23.659 A 15.336 15.336 0 0 1 120.825 25.576 Q 119.4 29.101 117.025 30.626 Q 114.65 32.151 111.7 32.151 Z M 136.8 32.151 Q 133.85 32.151 131.425 30.626 Q 129 29.101 127.575 25.551 A 22.728 22.728 0 0 1 126.209 18.369 A 43.858 43.858 0 0 1 126.15 16.051 Q 126.15 11.601 126.975 8.526 Q 127.8 5.451 129.275 3.576 Q 130.75 1.701 132.675 0.851 Q 134.6 0.001 136.8 0.001 Q 139.75 0.001 142.125 1.501 Q 144.5 3.001 145.925 6.501 A 21.724 21.724 0 0 1 147.261 13.185 A 43.715 43.715 0 0 1 147.35 16.051 A 30.924 30.924 0 0 1 146.548 23.659 A 15.336 15.336 0 0 1 145.925 25.576 Q 144.5 29.101 142.125 30.626 Q 139.75 32.151 136.8 32.151 Z M 49.45 29.651 Q 52.55 29.651 54.45 28.351 Q 56.35 27.051 57.375 25.001 Q 58.4 22.951 58.775 20.626 Q 59.15 18.301 59.15 16.201 Q 59.15 14.101 58.725 11.751 Q 58.3 9.401 57.2 7.351 Q 56.1 5.301 54.125 4.001 Q 52.15 2.701 49 2.701 Q 46 2.701 44.1 4.001 Q 42.2 5.301 41.175 7.351 Q 40.15 9.401 39.75 11.751 Q 39.35 14.101 39.35 16.201 Q 39.35 18.301 39.775 20.626 Q 40.2 22.951 41.3 25.001 Q 42.4 27.051 44.375 28.351 Q 46.35 29.651 49.45 29.651 Z M 86.6 28.201 Q 87.85 28.201 89.15 27.676 Q 90.45 27.151 91.525 25.801 Q 92.6 24.451 93.275 22.026 Q 93.95 19.601 93.95 15.801 Q 93.95 12.101 93.275 9.751 Q 92.6 7.401 91.525 6.126 Q 90.45 4.851 89.15 4.351 Q 87.85 3.851 86.6 3.851 Q 85.3 3.851 83.975 4.351 Q 82.65 4.851 81.55 6.176 Q 80.45 7.501 79.8 9.926 A 24.774 24.774 0 0 0 79.15 16.141 A 45.493 45.493 0 0 0 79.15 16.201 Q 79.15 19.901 79.8 22.251 Q 80.45 24.601 81.55 25.901 Q 82.65 27.201 83.975 27.701 Q 85.3 28.201 86.6 28.201 Z M 111.7 28.201 Q 112.95 28.201 114.25 27.676 Q 115.55 27.151 116.625 25.801 Q 117.7 24.451 118.375 22.026 Q 119.05 19.601 119.05 15.801 Q 119.05 12.101 118.375 9.751 Q 117.7 7.401 116.625 6.126 Q 115.55 4.851 114.25 4.351 Q 112.95 3.851 111.7 3.851 Q 110.4 3.851 109.075 4.351 Q 107.75 4.851 106.65 6.176 Q 105.55 7.501 104.9 9.926 A 24.774 24.774 0 0 0 104.25 16.141 A 45.493 45.493 0 0 0 104.25 16.201 Q 104.25 19.901 104.9 22.251 Q 105.55 24.601 106.65 25.901 Q 107.75 27.201 109.075 27.701 Q 110.4 28.201 111.7 28.201 Z M 136.8 28.201 Q 138.05 28.201 139.35 27.676 Q 140.65 27.151 141.725 25.801 Q 142.8 24.451 143.475 22.026 Q 144.15 19.601 144.15 15.801 Q 144.15 12.101 143.475 9.751 Q 142.8 7.401 141.725 6.126 Q 140.65 4.851 139.35 4.351 Q 138.05 3.851 136.8 3.851 Q 135.5 3.851 134.175 4.351 Q 132.85 4.851 131.75 6.176 Q 130.65 7.501 130 9.926 A 24.774 24.774 0 0 0 129.35 16.141 A 45.493 45.493 0 0 0 129.35 16.201 Q 129.35 19.901 130 22.251 Q 130.65 24.601 131.75 25.901 Q 132.85 27.201 134.175 27.701 Q 135.5 28.201 136.8 28.201 Z M 69.3 32.051 Q 68.1 32.051 67.2 31.201 Q 66.3 30.351 66.3 29.151 Q 66.3 27.901 67.2 27.026 Q 68.1 26.151 69.3 26.151 Q 70.5 26.151 71.4 27.026 Q 72.3 27.901 72.3 29.151 Q 72.3 30.351 71.4 31.201 Q 70.5 32.051 69.3 32.051 Z" />
    </g>
</svg>